<?xml version="1.0" standalone="no"?>
<!DOCTYPE svg PUBLIC "-//W3C//DTD SVG 20010904//EN"
 "http://www.w3.org/TR/2001/REC-SVG-20010904/DTD/svg10.dtd">
<svg version="1.0" xmlns="http://www.w3.org/2000/svg"
 width="171.000000pt" height="256.000000pt" viewBox="0 0 171.000000 256.000000"
 preserveAspectRatio="xMidYMid meet">

<g transform="translate(0.000000,256.000000) scale(0.100000,-0.100000)"
fill="#000000" stroke="none">
<path d="M763 2060 c-194 -35 -354 -177 -409 -365 -26 -89 -24 -222 5 -308 73
-215 270 -357 495 -357 154 1 263 45 366 149 323 326 124 855 -332 885 -40 3
-96 1 -125 -4z m77 -39 c0 -27 -2 -28 -57 -34 -85 -9 -189 -64 -256 -136 -73
-79 -96 -128 -122 -264 -5 -22 -10 -28 -28 -25 -20 3 -22 8 -19 50 4 62 34
149 73 210 79 122 245 223 377 227 29 1 32 -2 32 -28z m145 14 c88 -23 167
-70 233 -139 66 -68 105 -136 127 -223 22 -85 20 -113 -8 -113 -21 0 -25 7
-35 63 -34 184 -202 346 -376 364 -54 6 -56 7 -56 34 0 25 4 29 28 29 15 0 54
-7 87 -15z m-26 -220 c57 -20 110 -59 150 -112 37 -48 37 -48 -30 -87 l-47
-27 -21 35 c-20 32 -89 76 -120 76 -6 0 -25 10 -41 22 -25 18 -30 29 -30 65
l0 43 49 0 c27 0 67 -7 90 -15z m-342 -187 c30 -29 33 -37 33 -90 0 -32 7 -75
15 -95 8 -20 14 -37 13 -38 -2 -1 -17 -11 -35 -23 -17 -12 -35 -22 -40 -22
-18 0 -45 75 -50 136 -5 57 11 164 25 164 3 0 21 -14 39 -32z m261 -20 c17
-17 15 -43 -4 -59 -31 -26 -70 25 -44 56 15 18 32 19 48 3z m285 -40 c10 -55
-5 -139 -33 -186 l-20 -33 -38 28 c-20 15 -39 29 -41 30 -3 2 3 19 12 38 9 20
17 57 17 83 0 45 2 49 38 70 20 12 42 20 47 18 6 -1 14 -23 18 -48z m-419 -53
c71 -45 96 -78 96 -126 0 -45 -7 -47 -65 -19 -50 24 -81 64 -95 122 -16 72
-14 73 64 23z m292 -6 c-4 -23 -13 -54 -22 -70 -16 -32 -74 -74 -116 -84 -27
-7 -28 -5 -28 29 0 48 21 79 88 127 73 52 87 51 78 -2z m-632 4 c2 -16 8 -46
11 -68 28 -166 195 -317 388 -350 28 -4 37 -11 37 -25 0 -27 -47 -27 -132 0
-187 57 -327 224 -353 418 -7 51 -6 52 18 52 20 0 27 -6 31 -27z m956 -1 c0
-42 -27 -137 -55 -192 -72 -142 -261 -269 -402 -270 -26 0 -33 4 -33 20 0 14
9 21 38 25 20 4 60 13 87 21 156 48 279 191 308 358 10 59 14 66 34 66 19 0
23 -5 23 -28z m-308 -152 c21 -14 38 -30 38 -36 0 -29 -109 -92 -175 -101
l-46 -6 3 54 c3 52 4 54 38 62 20 4 49 19 65 32 17 13 32 23 35 22 3 -1 22
-13 42 -27z m-322 5 c7 -8 33 -21 59 -29 l46 -13 3 -52 c3 -50 2 -51 -25 -51
-37 0 -142 51 -171 83 l-24 25 38 26 c44 30 57 32 74 11z"/>
<path d="M445 895 c-19 -18 -25 -35 -25 -65 0 -56 34 -90 89 -90 63 0 71 7 71
56 0 44 0 44 -35 44 -24 0 -35 -5 -35 -15 0 -8 9 -15 20 -15 13 0 20 -7 20
-20 0 -15 -7 -20 -29 -20 -37 0 -61 23 -61 60 0 45 26 63 77 56 33 -4 43 -2
43 8 0 35 -101 36 -135 1z"/>
<path d="M620 830 c0 -83 1 -90 20 -90 16 0 20 7 20 35 0 28 4 35 20 35 13 0
26 -12 37 -35 10 -21 24 -35 35 -35 22 0 22 3 3 41 -14 27 -14 32 0 51 20 30
19 44 -5 68 -15 15 -33 20 -75 20 l-55 0 0 -90z m105 35 c0 -15 -8 -21 -32
-23 -30 -3 -33 -1 -33 23 0 24 3 26 33 23 24 -2 32 -8 32 -23z"/>
<path d="M810 830 l0 -90 60 0 c46 0 60 3 60 14 0 10 -14 16 -42 18 -35 2 -43
7 -43 23 0 16 8 21 43 23 56 4 51 26 -7 30 -33 3 -42 7 -39 20 2 12 15 18 46
20 28 2 42 8 42 18 0 11 -14 14 -60 14 l-60 0 0 -90z"/>
<path d="M970 830 l0 -90 60 0 c47 0 60 3 60 15 0 11 -11 15 -40 15 -36 0 -40
3 -40 25 0 23 4 25 41 25 52 0 48 24 -4 28 -29 3 -37 7 -37 23 0 16 7 19 40
19 29 0 40 4 40 15 0 12 -13 15 -60 15 l-60 0 0 -90z"/>
<path d="M1130 830 c0 -72 3 -90 15 -90 10 0 15 15 17 58 l3 57 44 -57 c62
-82 71 -78 71 32 0 72 -3 90 -15 90 -10 0 -15 -15 -17 -57 l-3 -58 -44 58
c-62 81 -71 77 -71 -33z"/>
<path d="M440 600 c0 -83 1 -90 20 -90 17 0 20 7 20 40 l0 40 41 0 c52 0 48
24 -4 28 -29 3 -37 7 -37 23 0 16 7 19 40 19 29 0 40 4 40 15 0 12 -13 15 -60
15 l-60 0 0 -90z"/>
<path d="M612 667 c-31 -33 -31 -105 1 -135 33 -31 90 -30 122 3 35 34 35 96
0 130 -33 34 -93 34 -123 2z m96 -19 c16 -16 16 -80 0 -96 -44 -44 -109 29
-74 83 18 27 54 33 74 13z"/>
<path d="M800 600 c0 -83 1 -90 20 -90 16 0 20 7 20 35 0 27 4 35 18 35 11 0
25 -14 35 -35 11 -23 24 -35 37 -35 l20 0 -20 39 c-17 34 -18 41 -5 51 8 7 15
23 15 36 0 38 -26 54 -86 54 l-54 0 0 -90z m103 46 c7 -19 -12 -36 -40 -36
-18 0 -23 6 -23 25 0 21 5 25 29 25 16 0 31 -6 34 -14z"/>
<path d="M1002 670 c-62 -58 -26 -160 56 -160 20 0 43 4 51 9 23 15 3 30 -32
24 -41 -6 -67 16 -67 57 0 41 26 63 67 57 35 -6 55 9 32 24 -26 16 -84 10
-107 -11z"/>
<path d="M1160 600 l0 -90 60 0 c46 0 60 3 60 14 0 10 -14 16 -42 18 -35 2
-43 7 -43 23 0 16 8 21 38 23 53 5 51 32 -3 32 -33 0 -40 3 -40 20 0 17 7 20
45 20 33 0 45 4 45 15 0 12 -13 15 -60 15 l-60 0 0 -90z"/>
</g>
</svg>
